<svg xmlns="http://www.w3.org/2000/svg" viewBox="0 0 178.26 178.28"><defs><style>.a{fill:none;stroke:#3cc;stroke-linecap:round;stroke-linejoin:round;opacity:0.4;}</style></defs><title>logo</title><path class="a" d="M1,178.29c2.54-2.68,5-5.48,7.38-8.31s4.65-5.62,6.87-8.51,4.15-6.11,6.36-9.05c2.36-3.15,4-6.84,6.36-10,2.61-3.42,4.66-7.25,7.37-10.62,2.87-3.56,5.83-7,8.86-10.39s6.71-6.55,10-9.86,6.75-6.31,10.15-9.4,6.51-6,9.88-8.83,6.49-5.54,9.83-8.19,6.6-5.12,10-7.61,6.7-4.69,10-7.06,6.65-4.25,9.88-6.52,6.4-4,9.47-6.18,6-4,9-6.21,5.8-4.31,8.63-6.56,5.75-4.66,8.56-7.06,5.72-5.06,8.52-7.65,5.59-5.45,8.36-8.21,5.4-5.56,8-8.38c1.25-1.33,2.54-2.64,3.78-4" transform="translate(-0.5 -0.51)"/><path class="a" d="M15.18,178.29a102.59,102.59,0,0,0,11-15.17c3.67-5.94,4.81-13.3,8.61-19.15a183.37,183.37,0,0,1,15.35-21.14c5.64-6.52,12.78-12,19.33-17.62C75.65,100,82,94.74,88.73,90.1a227.66,227.66,0,0,1,20-12.7c6.38-3.51,13.6-5.51,19.9-9,5.32-2.95,11.1-4.58,16.32-7.91s9.89-7.75,14.75-11.75c5.24-4.31,10.1-9.29,14.9-14.08,1.21-1.21,2.45-2.4,3.65-3.62" transform="translate(-0.5 -0.51)"/><path class="a" d="M29.35,178.29c3.18-5.91,3.81-10.28,5.91-16.39,3.85-11.23,4.25-19.71,11.25-30.32C53,121.8,64,114,73,106.83c8.39-6.69,17.61-14.4,27.38-19s77.85-44.27,77.85-44.27l0,0" transform="translate(-0.5 -0.51)"/><path class="a" d="M71.88,178.29c7-2.45,12.2-5.82,18-10.39,5-3.95,8-10.2,12.88-14.08,3.94-3.16,5.24-9.31,9-12.58,6.08-5.25,14.9-1.85,20.64-8.37,7.13-8.11,16-16.64,13.93-28.46a3.88,3.88,0,0,0-.25-.85,7.08,7.08,0,0,1,.86-7.27l31.26-38.5,0,0" transform="translate(-0.5 -0.51)"/><path class="a" d="M86.06,178.29a176.62,176.62,0,0,0,15.4-13.51c4.45-4.22,7.89-9.44,12.28-13.71,3.55-3.46,8.09-6.65,11.4-10.18,5.37-5.72,13-9.78,16.93-17.11,4.09-7.7,36.13-51.82,36.13-51.82l0,0" transform="translate(-0.5 -0.51)"/><path class="a" d="M100.24,178.29c4.64-4.34,9.26-8.69,13.67-13.27,4-4.11,8.48-8,12.11-12.4s5.31-10.45,8.63-14.62c4.94-6.21,17.23-16.17,20-23.55,2.83-7.64,23.59-28.3,23.59-28.3l0,0" transform="translate(-0.5 -0.51)"/><path class="a" d="M114.41,178.29c2.89-3,6-5.88,9-8.78s5.58-5.86,8.68-8.37c2.63-2.12,5.88-4.19,8.32-6.41,3.86-3.51,11.39-1.11,15-6.17,4.68-6.58,9-10.9,7.31-19.63-.25-1.23,15.52-28.66,15.52-28.66l0,0" transform="translate(-0.5 -0.51)"/><path class="a" d="M128.59,178.29c3.52-3.59,7.24-7.05,11-10.42s8.39-6.08,11.75-9.63c4.1-4.34,9-7.36,12.7-12.25,3.51-4.63,5.19-9.84,7.81-14.9,2-3.81,3.85-8.25,5.56-12.2.21-.49.64-.88.85-1.36" transform="translate(-0.5 -0.51)"/><path class="a" d="M142.77,178.29c4.81-4.43,9.72-8.9,14.32-13.55,4.92-5,9.86-9.76,14.3-15.18,2.4-2.93,4.69-6,6.85-9.11" transform="translate(-0.5 -0.51)"/><path class="a" d="M156.94,178.29c5.73-5.55,11.33-11.26,16.73-17.13,1.54-1.68,3-3.38,4.56-5.08" transform="translate(-0.5 -0.51)"/><path class="a" d="M171.12,178.29q3.59-3.68,7.13-7.42" transform="translate(-0.5 -0.51)"/><line class="a" x1="64.3" y1="0.57" x2="64.33" y2="0.53"/><path class="a" d="M1,8.17Q4.8,4.54,8.74,1.05" transform="translate(-0.5 -0.51)"/><path class="a" d="M1,22.35a107.84,107.84,0,0,1,9.49-9.68A108.75,108.75,0,0,1,21,4.86C22.79,3.59,24.6,2.2,26.5,1" transform="translate(-0.5 -0.51)"/><path class="a" d="M1,36.52C6.28,28.3,41.82,1.07,41.82,1.07l0,0" transform="translate(-0.5 -0.51)"/><path class="a" d="M1,50.7C4.58,48,7.07,44.79,11.07,42.78c8.46-4.26,18.7,3,24.39-11.35C38.29,24.28,50.66,1,50.66,1l0,0" transform="translate(-0.5 -0.51)"/><path class="a" d="M1,64.88A142,142,0,0,1,14.07,53.3c4.88-3.94,11.53-5.64,16-10C35.05,38.43,38.4,32.57,43,27.68c3.58-3.79,5.84-9.28,9.33-13.33A137.63,137.63,0,0,1,63.92,2.47c.51-.46.95-1,1.46-1.44" transform="translate(-0.5 -0.51)"/><path class="a" d="M1,79.05A211.74,211.74,0,0,1,17.07,63.2c5.73-5.19,12.58-9,18.26-14.26S46,38.2,51.43,32.9c5-4.86,9.5-10.28,14.38-15.26s9.94-9.93,15-14.81L82.6,1.05" transform="translate(-0.5 -0.51)"/><path class="a" d="M1,93.23c2.67-3.37,5.63-6.66,8.49-9.88,3.12-3.52,5.93-7.28,9.35-10.52,3.58-3.39,7.72-6,11.37-9.22,3.36-3,7.73-4.79,11.15-7.72,3.27-2.79,6.63-5.49,9.9-8.3s6.08-6,9.24-8.89,6-6,9.08-9,6-5.86,9-8.81,6.05-5.86,9-8.82,6-5.9,8.93-8.87l2.14-2.17" transform="translate(-0.5 -0.51)"/><path class="a" d="M1,107.41c5.2-5.2,9-11.32,13.7-16.81,6.42-7.49,9.11-13.85,17.47-20.12C39.08,65.3,48,68.61,54.52,64.56,65.81,57.51,76,45,85.68,35.85,95.93,26.1,106.74,17,115.05,5.45c1-1.43,2-3,2.92-4.44" transform="translate(-0.5 -0.51)"/><path class="a" d="M1,121.58c4.1-5.22,9.58-11.78,14.82-15.86,8.47-6.58,20.4-8.27,26.68-16,6.91-8.51,79-88.68,79-88.68l0,0" transform="translate(-0.5 -0.51)"/><path class="a" d="M1,135.76c3.88-4.52,7.84-9.13,12-13.4s8.06-8.5,12.37-12.53c4.65-4.35,11.84-5.73,16.12-10.31,5.1-5.46,8.45-12.31,13.25-17.65,3.32-3.69,5.1-9.51,8.5-13.54,3.7-4.39,8.53-7.74,12.49-11.88s8.8-7.87,13.11-11.82,9.09-7.36,12.91-11.59c3.52-3.89,9.1-6.75,12-11.11,3.93-5.86,21.79-19.1,21.91-20.86" transform="translate(-0.5 -0.51)"/><path class="a" d="M1,149.94c4.42-5.21,8.77-10.51,13.29-15.64,4.7-5.33,9.19-10.81,14.15-15.91,5.34-5.5,11.8-9.79,17.14-15.24C51.16,97.46,56.12,91,61.76,85.46c5-4.91,9.59-10.12,14.64-15s10.45-9.05,15.65-13.58,10.23-8.81,15.5-13c5-4,9.7-8.33,14.79-12.2,4.81-3.66,11.76-5.78,16.1-9.66,6.22-5.56,11.79-9.15,16.28-16.62A44.49,44.49,0,0,0,157.15,1" transform="translate(-0.5 -0.51)"/><path class="a" d="M1,164.11c4.77-5.48,9.25-11.15,13.82-16.79,4.87-6,9.12-12.51,14.22-18.32,5.55-6.33,11.49-12.08,17.34-18.12,6-6.2,12.39-12.34,18.71-18.22,5.82-5.4,11.48-10.89,17.5-16.08,5.81-5,12-9.59,18-14.36,5.72-4.55,11.66-8.85,17.45-13.31,5.53-4.27,11.22-8.41,16.61-12.86,5.78-4.78,12-9,17.38-14.17A193.3,193.3,0,0,0,167.23,5c1.1-1.34,2.33-2.59,3.4-3.95" transform="translate(-0.5 -0.51)"/></svg>